# This file uses centimeters as units for non-parametric coordinates.

v 0.913545 -1.000000 -0.406736
v 0.669131 -1.000000 -0.743145
v 0.309017 -1.000000 -0.951056
v -0.104528 -1.000000 -0.994522
v -0.500000 -1.000000 -0.866025
v -0.809017 -1.000000 -0.587785
v -0.978147 -1.000000 -0.207912
v -0.978148 -1.000000 0.207912
v -0.809017 -1.000000 0.587785
v -0.500000 -1.000000 0.866025
v -0.104529 -1.000000 0.994522
v 0.309017 -1.000000 0.951056
v 0.669131 -1.000000 0.743145
v 0.913545 -1.000000 0.406737
v 1.000000 -1.000000 0.000000
v 0.913545 1.000000 -0.406736
v 0.669131 1.000000 -0.743145
v 0.309017 1.000000 -0.951056
v -0.104528 1.000000 -0.994522
v -0.500000 1.000000 -0.866025
v -0.809017 1.000000 -0.587785
v -0.978147 1.000000 -0.207912
v -0.978148 1.000000 0.207912
v -0.809017 1.000000 0.587785
v -0.500000 1.000000 0.866025
v -0.104529 1.000000 0.994522
v 0.309017 1.000000 0.951056
v 0.669131 1.000000 0.743145
v 0.913545 1.000000 0.406737
v 1.000000 1.000000 0.000000
v 0.816732 1.000000 -0.365572
v 0.597054 1.000000 -0.667934
v 0.273386 1.000000 -0.854805
v -0.098307 1.000000 -0.893871
v -0.453755 1.000000 -0.778379
v -0.731497 1.000000 -0.528298
v -0.883511 1.000000 -0.186870
v -0.883511 1.000000 0.186870
v -0.731498 1.000000 0.528298
v -0.453755 1.000000 0.778379
v -0.098307 1.000000 0.893871
v 0.273385 1.000000 0.854805
v 0.597054 1.000000 0.667934
v 0.816732 1.000000 0.365573
v 0.894438 1.000000 -0.000000
v 0.000000 -1.000000 0.000000
v 0.816732 -0.884672 -0.365572
v 0.597054 -0.884672 -0.667934
v 0.000000 -0.884672 0.000000
v 0.273386 -0.884672 -0.854805
v -0.098307 -0.884672 -0.893871
v -0.453755 -0.884672 -0.778379
v -0.731497 -0.884672 -0.528298
v -0.883511 -0.884672 -0.186870
v -0.883511 -0.884672 0.186870
v -0.731498 -0.884672 0.528298
v -0.453755 -0.884672 0.778379
v -0.098307 -0.884672 0.893871
v 0.273385 -0.884672 0.854805
v 0.597054 -0.884672 0.667934
v 0.816732 -0.884672 0.365573
v 0.894438 -0.884672 -0.000000
vt 0.642741 0.092697
vt 0.604552 0.040134
vt 0.548284 0.007647
vt 0.483667 0.000856
vt 0.421875 0.020934
vt 0.373591 0.064409
vt 0.347164 0.123764
vt 0.347164 0.188736
vt 0.373591 0.248091
vt 0.421875 0.291566
vt 0.483667 0.311644
vt 0.548284 0.304853
vt 0.604552 0.272366
vt 0.642741 0.219803
vt 0.656250 0.156250
vt 0.375000 0.312500
vt 0.391667 0.312500
vt 0.408333 0.312500
vt 0.425000 0.312500
vt 0.441667 0.312500
vt 0.458333 0.312500
vt 0.475000 0.312500
vt 0.491667 0.312500
vt 0.508333 0.312500
vt 0.525000 0.312500
vt 0.541667 0.312500
vt 0.558333 0.312500
vt 0.575000 0.312500
vt 0.591667 0.312500
vt 0.608333 0.312500
vt 0.625000 0.312500
vt 0.375000 0.688440
vt 0.391667 0.688440
vt 0.408333 0.688440
vt 0.425000 0.688440
vt 0.441667 0.688440
vt 0.458333 0.688440
vt 0.475000 0.688440
vt 0.491667 0.688440
vt 0.508333 0.688440
vt 0.525000 0.688440
vt 0.541667 0.688440
vt 0.558333 0.688440
vt 0.575000 0.688440
vt 0.591667 0.688440
vt 0.608333 0.688440
vt 0.625000 0.688440
vt 0.642741 0.780197
vt 0.604552 0.727634
vt 0.548284 0.695147
vt 0.483667 0.688356
vt 0.421875 0.708434
vt 0.373591 0.751909
vt 0.347164 0.811264
vt 0.347164 0.876236
vt 0.373591 0.935591
vt 0.421875 0.979066
vt 0.483667 0.999144
vt 0.548284 0.992353
vt 0.604552 0.959866
vt 0.642741 0.907303
vt 0.656250 0.843750
vt 0.571371 0.811974
vt 0.552276 0.785692
vt 0.524142 0.769449
vt 0.491834 0.766053
vt 0.460938 0.776092
vt 0.436796 0.797829
vt 0.423582 0.827507
vt 0.423582 0.859993
vt 0.436796 0.889671
vt 0.460938 0.911408
vt 0.491834 0.921447
vt 0.524142 0.918051
vt 0.552276 0.901808
vt 0.571371 0.875526
vt 0.578125 0.843750
vt 0.500000 0.150000
vt 0.500000 0.837500
vt 0.571371 0.875526
vt 0.552276 0.901808
vt 0.524142 0.918051
vt 0.491834 0.921447
vt 0.460938 0.911408
vt 0.436796 0.889671
vt 0.423582 0.859993
vt 0.423582 0.827507
vt 0.436796 0.797829
vt 0.460938 0.776092
vt 0.491834 0.766053
vt 0.524142 0.769449
vt 0.552276 0.785692
vt 0.571371 0.811974
vt 0.578125 0.843750
vn 0.000000 -1.000000 0.000000
vn 0.000000 -1.000000 0.000000
vn 0.000000 -1.000000 0.000000
vn 0.000000 -1.000000 0.000000
vn 0.000000 -1.000000 0.000000
vn 0.000000 -1.000000 0.000000
vn 0.000000 -1.000000 0.000000
vn 0.000000 -1.000000 0.000000
vn 0.000000 -1.000000 0.000000
vn 0.000000 -1.000000 0.000000
vn 0.000000 -1.000000 0.000000
vn 0.000000 -1.000000 0.000000
vn 0.000000 -1.000000 0.000000
vn 0.000000 -1.000000 0.000000
vn 0.000000 -1.000000 0.000000
vn 0.000000 -1.000000 0.000000
vn 0.913545 0.000000 -0.406737
vn 0.669131 0.000000 -0.743145
vn 0.669131 0.000000 -0.743145
vn 0.913545 0.000000 -0.406737
vn 0.309017 0.000000 -0.951056
vn 0.309017 0.000000 -0.951056
vn -0.104528 0.000000 -0.994522
vn -0.104528 0.000000 -0.994522
vn -0.500000 0.000000 -0.866026
vn -0.500000 0.000000 -0.866026
vn -0.809017 0.000000 -0.587785
vn -0.809017 0.000000 -0.587785
vn -0.978148 0.000000 -0.207912
vn -0.978148 0.000000 -0.207912
vn -0.978148 0.000000 0.207912
vn -0.978148 0.000000 0.207912
vn -0.809017 0.000000 0.587785
vn -0.809017 0.000000 0.587785
vn -0.500000 0.000000 0.866025
vn -0.500000 0.000000 0.866025
vn -0.104529 0.000000 0.994522
vn -0.104529 0.000000 0.994522
vn 0.309017 0.000000 0.951057
vn 0.309017 0.000000 0.951057
vn 0.669131 0.000000 0.743145
vn 0.669131 0.000000 0.743145
vn 0.913545 0.000000 0.406737
vn 0.913545 0.000000 0.406737
vn 1.000000 0.000000 -0.000000
vn 1.000000 0.000000 -0.000000
vn 0.000000 1.000000 0.000000
vn 0.000000 1.000000 0.000000
vn 0.000000 1.000000 0.000000
vn 0.000000 1.000000 0.000000
vn 0.000000 1.000000 0.000000
vn 0.000000 1.000000 0.000000
vn 0.000000 1.000000 -0.000000
vn 0.000000 1.000000 -0.000000
vn 0.000000 1.000000 -0.000000
vn 0.000000 1.000000 -0.000000
vn 0.000000 1.000000 0.000000
vn 0.000000 1.000000 0.000000
vn 0.000000 1.000000 0.000000
vn 0.000000 1.000000 0.000000
vn 0.000000 1.000000 0.000000
vn 0.000000 1.000000 0.000000
vn 0.000000 1.000000 0.000000
vn 0.000000 1.000000 0.000000
vn 0.000000 1.000000 0.000000
vn 0.000000 1.000000 0.000000
vn 0.000000 1.000000 0.000000
vn 0.000000 1.000000 0.000000
vn 0.000000 1.000000 0.000000
vn 0.000000 1.000000 0.000000
vn 0.000000 1.000000 0.000000
vn 0.000000 1.000000 0.000000
vn 0.000000 1.000000 0.000000
vn 0.000000 1.000000 0.000000
vn 0.000000 1.000000 0.000000
vn 0.000000 1.000000 0.000000
vn 0.000000 1.000000 0.000000
vn 0.000000 1.000000 0.000000
vn 0.000000 1.000000 -0.000000
vn 0.000000 1.000000 0.000000
vn 0.000000 1.000000 0.000000
vn 0.000000 1.000000 0.000000
vn 0.000000 1.000000 0.000000
vn 0.000000 1.000000 0.000000
vn 0.000000 1.000000 -0.000000
vn 0.000000 1.000000 -0.000000
vn 0.000000 1.000000 0.000000
vn 0.000000 1.000000 0.000000
vn 0.000000 1.000000 0.000000
vn 0.000000 1.000000 0.000000
vn 0.000000 1.000000 -0.000000
vn 0.000000 1.000000 -0.000000
vn -0.809017 0.000000 0.587785
vn -0.809017 0.000000 0.587785
vn -0.809017 0.000000 0.587785
vn -0.809017 0.000000 0.587785
vn -0.500001 0.000000 0.866025
vn -0.500001 0.000000 0.866025
vn -0.500001 0.000000 0.866025
vn -0.500001 0.000000 0.866025
vn -0.104528 0.000000 0.994522
vn -0.104528 0.000000 0.994522
vn -0.104528 0.000000 0.994522
vn -0.104528 0.000000 0.994522
vn 0.309017 0.000000 0.951057
vn 0.309017 0.000000 0.951057
vn 0.309017 0.000000 0.951057
vn 0.309017 0.000000 0.951057
vn 0.669131 0.000000 0.743145
vn 0.669131 0.000000 0.743145
vn 0.669131 0.000000 0.743145
vn 0.669131 0.000000 0.743145
vn 0.913545 0.000000 0.406737
vn 0.913545 0.000000 0.406737
vn 0.913545 0.000000 0.406737
vn 0.913545 0.000000 0.406737
vn 1.000000 0.000000 0.000000
vn 1.000000 0.000000 0.000000
vn 1.000000 0.000000 0.000000
vn 1.000000 0.000000 0.000000
vn 0.913545 0.000000 -0.406737
vn 0.913545 0.000000 -0.406737
vn 0.913545 0.000000 -0.406737
vn 0.913545 0.000000 -0.406737
vn 0.669131 0.000000 -0.743145
vn 0.669131 0.000000 -0.743145
vn 0.669131 0.000000 -0.743145
vn 0.669131 0.000000 -0.743145
vn 0.309017 0.000000 -0.951056
vn 0.309017 0.000000 -0.951056
vn 0.309017 0.000000 -0.951056
vn 0.309017 0.000000 -0.951056
vn -0.104528 0.000000 -0.994522
vn -0.104528 0.000000 -0.994522
vn -0.104528 0.000000 -0.994522
vn -0.104528 0.000000 -0.994522
vn -0.500000 0.000000 -0.866025
vn -0.500000 0.000000 -0.866025
vn -0.500000 0.000000 -0.866025
vn -0.500000 0.000000 -0.866025
vn -0.809017 0.000000 -0.587785
vn -0.809017 0.000000 -0.587785
vn -0.809017 0.000000 -0.587785
vn -0.809017 0.000000 -0.587785
vn -0.978147 0.000000 -0.207913
vn -0.978147 0.000000 -0.207913
vn -0.978147 0.000000 -0.207913
vn -0.978147 0.000000 -0.207913
vn -0.978147 0.000000 0.207913
vn -0.978147 0.000000 0.207913
vn -0.978147 0.000000 0.207913
vn -0.978147 0.000000 0.207913
f 2/2/1 1/1/2 46/78/3
f 3/3/4 2/2/1 46/78/3
f 4/4/5 3/3/4 46/78/3
f 5/5/6 4/4/5 46/78/3
f 6/6/7 5/5/6 46/78/3
f 7/7/8 6/6/7 46/78/3
f 8/8/9 7/7/8 46/78/3
f 9/9/10 8/8/9 46/78/3
f 10/10/11 9/9/10 46/78/3
f 11/11/12 10/10/11 46/78/3
f 12/12/13 11/11/12 46/78/3
f 13/13/14 12/12/13 46/78/3
f 14/14/15 13/13/14 46/78/3
f 15/15/16 14/14/15 46/78/3
f 1/1/2 15/15/16 46/78/3
f 1/16/17 2/17/18 17/33/19 16/32/20
f 2/17/18 3/18/21 18/34/22 17/33/19
f 3/18/21 4/19/23 19/35/24 18/34/22
f 4/19/23 5/20/25 20/36/26 19/35/24
f 5/20/25 6/21/27 21/37/28 20/36/26
f 6/21/27 7/22/29 22/38/30 21/37/28
f 7/22/29 8/23/31 23/39/32 22/38/30
f 8/23/31 9/24/33 24/40/34 23/39/32
f 9/24/33 10/25/35 25/41/36 24/40/34
f 10/25/35 11/26/37 26/42/38 25/41/36
f 11/26/37 12/27/39 27/43/40 26/42/38
f 12/27/39 13/28/41 28/44/42 27/43/40
f 13/28/41 14/29/43 29/45/44 28/44/42
f 14/29/43 15/30/45 30/46/46 29/45/44
f 15/30/45 1/31/17 16/47/20 30/46/46
f 16/61/47 17/60/48 32/75/49 31/76/50
f 17/60/48 18/59/51 33/74/52 32/75/49
f 18/59/51 19/58/53 34/73/54 33/74/52
f 19/58/53 20/57/55 35/72/56 34/73/54
f 20/57/55 21/56/57 36/71/58 35/72/56
f 21/56/57 22/55/59 37/70/60 36/71/58
f 22/55/59 23/54/61 38/69/62 37/70/60
f 23/54/61 24/53/63 39/68/64 38/69/62
f 24/53/63 25/52/65 40/67/66 39/68/64
f 25/52/65 26/51/67 41/66/68 40/67/66
f 26/51/67 27/50/69 42/65/70 41/66/68
f 27/50/69 28/49/71 43/64/72 42/65/70
f 28/49/71 29/48/73 44/63/74 43/64/72
f 29/48/73 30/62/75 45/77/76 44/63/74
f 30/62/75 16/61/47 31/76/50 45/77/76
f 47/80/77 48/81/78 49/79/79
f 48/81/78 50/82/80 49/79/79
f 50/82/80 51/83/81 49/79/79
f 51/83/81 52/84/82 49/79/79
f 52/84/82 53/85/83 49/79/79
f 53/85/83 54/86/84 49/79/79
f 54/86/84 55/87/85 49/79/79
f 55/87/85 56/88/86 49/79/79
f 56/88/86 57/89/87 49/79/79
f 57/89/87 58/90/88 49/79/79
f 58/90/88 59/91/89 49/79/79
f 59/91/89 60/92/90 49/79/79
f 60/92/90 61/93/91 49/79/79
f 61/93/91 62/94/92 49/79/79
f 62/94/92 47/80/77 49/79/79
f 31/76/93 32/75/94 48/81/95 47/80/96
f 32/75/97 33/74/98 50/82/99 48/81/100
f 33/74/101 34/73/102 51/83/103 50/82/104
f 34/73/105 35/72/106 52/84/107 51/83/108
f 35/72/109 36/71/110 53/85/111 52/84/112
f 36/71/113 37/70/114 54/86/115 53/85/116
f 37/70/117 38/69/118 55/87/119 54/86/120
f 38/69/121 39/68/122 56/88/123 55/87/124
f 39/68/125 40/67/126 57/89/127 56/88/128
f 40/67/129 41/66/130 58/90/131 57/89/132
f 41/66/133 42/65/134 59/91/135 58/90/136
f 42/65/137 43/64/138 60/92/139 59/91/140
f 43/64/141 44/63/142 61/93/143 60/92/144
f 44/63/145 45/77/146 62/94/147 61/93/148
f 45/77/149 31/76/150 47/80/151 62/94/152
