# This file uses centimeters as units for non-parametric coordinates.

mtllib Dice_obj.mtl
v -0.450005 -0.500000 0.450005
v -0.450005 -0.450005 0.500000
v -0.500000 -0.450005 0.450005
v 0.500000 -0.450005 0.450005
v 0.450005 -0.450005 0.500000
v 0.450005 -0.500000 0.450005
v -0.500000 0.450005 0.450005
v -0.450005 0.450005 0.500000
v -0.450005 0.500000 0.450005
v 0.450005 0.500000 0.450005
v 0.450005 0.450005 0.500000
v 0.500000 0.450005 0.450005
v -0.500000 0.450005 -0.450005
v -0.450005 0.500000 -0.450005
v -0.450005 0.450005 -0.500000
v 0.450005 0.450005 -0.500000
v 0.450005 0.500000 -0.450005
v 0.500000 0.450005 -0.450005
v -0.500000 -0.450005 -0.450005
v -0.450005 -0.450005 -0.500000
v -0.450005 -0.500000 -0.450005
v 0.450005 -0.500000 -0.450005
v 0.450005 -0.450005 -0.500000
v 0.500000 -0.450005 -0.450005
vt 0.619278 0.363656
vt 0.926047 0.363656
vt 0.926047 0.670426
vt 0.619278 0.670426
vt 0.619278 0.346615
vt 0.926047 0.346615
vt 0.943088 0.670426
vt 0.943088 0.363656
vt 0.619278 0.687467
vt 0.926047 0.687467
vt 0.602237 0.363656
vt 0.602237 0.670426
vt 0.018923 0.019033
vt 0.325693 0.019033
vt 0.325693 0.325802
vt 0.018923 0.325802
vt 0.325693 0.001992
vt 0.018923 0.001992
vt 0.342734 0.019033
vt 0.342734 0.325802
vt 0.325693 0.342843
vt 0.018923 0.342843
vt 0.001882 0.325802
vt 0.001882 0.019033
vt 0.289669 0.363656
vt 0.596439 0.363656
vt 0.596439 0.670426
vt 0.289669 0.670426
vt 0.289669 0.346615
vt 0.596439 0.346615
vt 0.289669 0.687467
vt 0.596439 0.687467
vt 0.350148 0.019033
vt 0.656918 0.019033
vt 0.656918 0.325803
vt 0.350148 0.325803
vt 0.350148 0.001992
vt 0.656918 0.001992
vt 0.350148 0.342843
vt 0.656918 0.342843
vt 0.001882 0.691238
vt 0.308652 0.691238
vt 0.308652 0.998008
vt 0.001882 0.998008
vt 0.315156 0.691238
vt 0.621926 0.691238
vt 0.621926 0.998008
vt 0.315156 0.998008
vn -0.707107 -0.707107 0.000000
vn -0.707107 -0.707107 0.000000
vn -0.707107 -0.707107 0.000000
vn -0.707107 -0.707107 0.000000
vn 0.000000 -0.707107 0.707107
vn 0.000000 -0.707107 0.707107
vn 0.000000 -0.707107 0.707107
vn 0.000000 -0.707107 0.707107
vn -0.707107 0.000000 0.707107
vn -0.707107 0.000000 0.707107
vn -0.707107 0.000000 0.707107
vn -0.707107 0.000000 0.707107
vn 0.707107 -0.707107 0.000000
vn 0.707107 -0.707107 0.000000
vn 0.707107 -0.707107 0.000000
vn 0.707107 -0.707107 0.000000
vn 0.707107 0.000000 0.707107
vn 0.707107 0.000000 0.707107
vn 0.707107 0.000000 0.707107
vn 0.707107 0.000000 0.707107
vn -0.707107 0.707107 0.000000
vn -0.707107 0.707107 0.000000
vn -0.707107 0.707107 0.000000
vn -0.707107 0.707107 0.000000
vn 0.000000 0.707107 0.707107
vn 0.000000 0.707107 0.707107
vn 0.000000 0.707107 0.707107
vn 0.000000 0.707107 0.707107
vn 0.707107 0.707107 0.000000
vn 0.707107 0.707107 0.000000
vn 0.707107 0.707107 0.000000
vn 0.707107 0.707107 0.000000
vn -0.707107 0.000000 -0.707107
vn -0.707107 0.000000 -0.707107
vn -0.707107 0.000000 -0.707107
vn -0.707107 0.000000 -0.707107
vn 0.000000 0.707107 -0.707107
vn 0.000000 0.707107 -0.707107
vn 0.000000 0.707107 -0.707107
vn 0.000000 0.707107 -0.707107
vn 0.707107 0.000000 -0.707107
vn 0.707107 0.000000 -0.707107
vn 0.707107 0.000000 -0.707107
vn 0.707107 0.000000 -0.707107
vn 0.000000 -0.707107 -0.707107
vn 0.000000 -0.707107 -0.707107
vn 0.000000 -0.707107 -0.707107
vn 0.000000 -0.707107 -0.707107
vn 0.000000 0.000000 1.000000
vn 0.000000 0.000000 1.000000
vn 0.000000 0.000000 1.000000
vn 0.000000 0.000000 1.000000
vn 0.000000 1.000000 0.000000
vn 0.000000 1.000000 0.000000
vn 0.000000 1.000000 0.000000
vn 0.000000 1.000000 0.000000
vn 0.000000 0.000000 -1.000000
vn 0.000000 0.000000 -1.000000
vn 0.000000 0.000000 -1.000000
vn 0.000000 0.000000 -1.000000
vn 0.000000 -1.000000 0.000000
vn 0.000000 -1.000000 0.000000
vn 0.000000 -1.000000 0.000000
vn 0.000000 -1.000000 0.000000
vn 1.000000 0.000000 0.000000
vn 1.000000 0.000000 0.000000
vn 1.000000 0.000000 0.000000
vn 1.000000 0.000000 0.000000
vn -1.000000 0.000000 0.000000
vn -1.000000 0.000000 0.000000
vn -1.000000 0.000000 0.000000
vn -1.000000 0.000000 0.000000
vn -0.577350 -0.577350 0.577350
vn -0.577350 -0.577350 0.577350
vn -0.577350 -0.577350 0.577350
vn 0.577350 -0.577350 0.577350
vn 0.577350 -0.577350 0.577350
vn 0.577350 -0.577350 0.577350
vn -0.577350 0.577350 0.577350
vn -0.577350 0.577350 0.577350
vn -0.577350 0.577350 0.577350
vn 0.577350 0.577350 0.577350
vn 0.577350 0.577350 0.577350
vn 0.577350 0.577350 0.577350
vn -0.577350 0.577350 -0.577350
vn -0.577350 0.577350 -0.577350
vn -0.577350 0.577350 -0.577350
vn 0.577350 0.577350 -0.577350
vn 0.577350 0.577350 -0.577350
vn 0.577350 0.577350 -0.577350
vn -0.577350 -0.577350 -0.577350
vn -0.577350 -0.577350 -0.577350
vn -0.577350 -0.577350 -0.577350
vn 0.577350 -0.577350 -0.577350
vn 0.577350 -0.577350 -0.577350
vn 0.577350 -0.577350 -0.577350
usemtl blinn1SG
f 1/17/1 3/14/2 19/13/3 21/18/4
f 2/39/5 1/36/6 6/35/7 5/40/8
f 3/14/9 2/19/10 8/20/11 7/15/12
f 4/1/13 6/5/14 22/6/15 24/2/16
f 5/11/17 4/1/18 12/4/19 11/12/20
f 7/15/21 9/21/22 14/22/23 13/16/24
f 9/25/25 8/29/26 11/30/27 10/26/28
f 10/9/29 12/4/30 18/3/31 17/10/32
f 13/16/33 15/23/34 20/24/35 19/13/36
f 15/31/37 14/28/38 17/27/39 16/32/40
f 16/7/41 18/3/42 24/2/43 23/8/44
f 21/33/45 20/37/46 23/38/47 22/34/48
f 2/41/49 5/42/50 11/43/51 8/44/52
f 9/25/53 10/26/54 17/27/55 14/28/56
f 15/45/57 16/46/58 23/47/59 20/48/60
f 21/33/61 22/34/62 6/35/63 1/36/64
f 4/1/65 24/2/66 18/3/67 12/4/68
f 19/13/69 3/14/70 7/15/71 13/16/72
f 1/17/73 2/19/74 3/14/75
f 4/1/76 5/11/77 6/5/78
f 7/15/79 8/20/80 9/21/81
f 10/9/82 11/12/83 12/4/84
f 13/16/85 14/22/86 15/23/87
f 16/7/88 17/10/89 18/3/90
f 19/13/91 20/24/92 21/18/93
f 22/6/94 23/8/95 24/2/96
